<svg id="visual" viewBox="0 0 900 450" width="900" height="450" xmlns="http://www.w3.org/2000/svg" xmlns:xlink="http://www.w3.org/1999/xlink" version="1.1"><rect x="0" y="0" width="900" height="450" fill="#171717"></rect><g fill="#6681C2"><circle r="19" cx="708" cy="29"></circle><circle r="6" cx="268" cy="197"></circle><circle r="14" cx="47" cy="388"></circle><circle r="11" cx="591" cy="297"></circle><circle r="12" cx="327" cy="297"></circle><circle r="11" cx="309" cy="29"></circle><circle r="6" cx="306" cy="217"></circle><circle r="7" cx="46" cy="209"></circle><circle r="14" cx="634" cy="145"></circle><circle r="16" cx="333" cy="407"></circle><circle r="10" cx="85" cy="54"></circle><circle r="13" cx="480" cy="362"></circle><circle r="9" cx="543" cy="63"></circle><circle r="17" cx="634" cy="57"></circle><circle r="13" cx="863" cy="225"></circle><circle r="8" cx="25" cy="287"></circle><circle r="16" cx="113" cy="148"></circle><circle r="9" cx="673" cy="430"></circle><circle r="12" cx="189" cy="307"></circle><circle r="9" cx="471" cy="30"></circle></g></svg>