<svg id="visual" viewBox="0 0 900 250" width="900" height="250" xmlns="http://www.w3.org/2000/svg" xmlns:xlink="http://www.w3.org/1999/xlink" version="1.1"><rect x="0" y="0" width="900" height="250" fill="#6681C2"></rect><path d="M0 92L21.5 91.8C43 91.7 86 91.3 128.8 85.3C171.7 79.3 214.3 67.7 257.2 69C300 70.3 343 84.7 385.8 88.5C428.7 92.3 471.3 85.7 514.2 85.5C557 85.3 600 91.7 642.8 96.8C685.7 102 728.3 106 771.2 102.7C814 99.3 857 88.7 878.5 83.3L900 78L900 251L878.5 251C857 251 814 251 771.2 251C728.3 251 685.7 251 642.8 251C600 251 557 251 514.2 251C471.3 251 428.7 251 385.8 251C343 251 300 251 257.2 251C214.3 251 171.7 251 128.8 251C86 251 43 251 21.5 251L0 251Z" fill="#6681c2"></path><path d="M0 117L21.5 116.8C43 116.7 86 116.3 128.8 118.2C171.7 120 214.3 124 257.2 119.3C300 114.7 343 101.3 385.8 97.5C428.7 93.7 471.3 99.3 514.2 102.3C557 105.3 600 105.7 642.8 109.5C685.7 113.3 728.3 120.7 771.2 115.5C814 110.3 857 92.7 878.5 83.8L900 75L900 251L878.5 251C857 251 814 251 771.2 251C728.3 251 685.7 251 642.8 251C600 251 557 251 514.2 251C471.3 251 428.7 251 385.8 251C343 251 300 251 257.2 251C214.3 251 171.7 251 128.8 251C86 251 43 251 21.5 251L0 251Z" fill="#526493"></path><path d="M0 131L21.5 128.3C43 125.7 86 120.3 128.8 118.5C171.7 116.7 214.3 118.3 257.2 125.8C300 133.3 343 146.7 385.8 146.3C428.7 146 471.3 132 514.2 127C557 122 600 126 642.8 128C685.7 130 728.3 130 771.2 132.3C814 134.7 857 139.3 878.5 141.7L900 144L900 251L878.5 251C857 251 814 251 771.2 251C728.3 251 685.7 251 642.8 251C600 251 557 251 514.2 251C471.3 251 428.7 251 385.8 251C343 251 300 251 257.2 251C214.3 251 171.7 251 128.8 251C86 251 43 251 21.5 251L0 251Z" fill="#3e4966"></path><path d="M0 188L21.5 183.5C43 179 86 170 128.8 168.2C171.7 166.3 214.3 171.7 257.2 174.5C300 177.3 343 177.7 385.8 173.2C428.7 168.7 471.3 159.3 514.2 157C557 154.7 600 159.3 642.8 162C685.7 164.7 728.3 165.3 771.2 169.3C814 173.3 857 180.7 878.5 184.3L900 188L900 251L878.5 251C857 251 814 251 771.2 251C728.3 251 685.7 251 642.8 251C600 251 557 251 514.2 251C471.3 251 428.7 251 385.8 251C343 251 300 251 257.2 251C214.3 251 171.7 251 128.8 251C86 251 43 251 21.5 251L0 251Z" fill="#2b2f3c"></path><path d="M0 199L21.5 197.8C43 196.7 86 194.3 128.8 193.5C171.7 192.7 214.3 193.3 257.2 196.3C300 199.3 343 204.7 385.8 203.8C428.7 203 471.3 196 514.2 195.3C557 194.7 600 200.3 642.8 205.5C685.7 210.7 728.3 215.3 771.2 214.2C814 213 857 206 878.5 202.5L900 199L900 251L878.5 251C857 251 814 251 771.2 251C728.3 251 685.7 251 642.8 251C600 251 557 251 514.2 251C471.3 251 428.7 251 385.8 251C343 251 300 251 257.2 251C214.3 251 171.7 251 128.8 251C86 251 43 251 21.5 251L0 251Z" fill="#171717"></path></svg>