<svg id="visual" viewBox="0 0 675 600" width="675" height="600" xmlns="http://www.w3.org/2000/svg" xmlns:xlink="http://www.w3.org/1999/xlink" version="1.1"><path d="M0 434L16 421C32 408 64 382 96.2 372.2C128.3 362.3 160.7 368.7 192.8 378.7C225 388.7 257 402.3 289.2 401.8C321.3 401.3 353.7 386.7 385.8 382.3C418 378 450 384 482.2 383.7C514.3 383.3 546.7 376.7 578.8 375.7C611 374.7 643 379.3 659 381.7L675 384L675 601L659 601C643 601 611 601 578.8 601C546.7 601 514.3 601 482.2 601C450 601 418 601 385.8 601C353.7 601 321.3 601 289.2 601C257 601 225 601 192.8 601C160.7 601 128.3 601 96.2 601C64 601 32 601 16 601L0 601Z" fill="#96a6cc"></path><path d="M0 416L16 426.5C32 437 64 458 96.2 455C128.3 452 160.7 425 192.8 423.2C225 421.3 257 444.7 289.2 445.3C321.3 446 353.7 424 385.8 421.5C418 419 450 436 482.2 445.7C514.3 455.3 546.7 457.7 578.8 459C611 460.3 643 460.7 659 460.8L675 461L675 601L659 601C643 601 611 601 578.8 601C546.7 601 514.3 601 482.2 601C450 601 418 601 385.8 601C353.7 601 321.3 601 289.2 601C257 601 225 601 192.8 601C160.7 601 128.3 601 96.2 601C64 601 32 601 16 601L0 601Z" fill="#8a9cca"></path><path d="M0 453L16 457.2C32 461.3 64 469.7 96.2 477.7C128.3 485.7 160.7 493.3 192.8 496.3C225 499.3 257 497.7 289.2 498.3C321.3 499 353.7 502 385.8 494.5C418 487 450 469 482.2 466.7C514.3 464.3 546.7 477.7 578.8 478C611 478.3 643 465.7 659 459.3L675 453L675 601L659 601C643 601 611 601 578.8 601C546.7 601 514.3 601 482.2 601C450 601 418 601 385.8 601C353.7 601 321.3 601 289.2 601C257 601 225 601 192.8 601C160.7 601 128.3 601 96.2 601C64 601 32 601 16 601L0 601Z" fill="#7e93c7"></path><path d="M0 514L16 510.2C32 506.3 64 498.7 96.2 496.7C128.3 494.7 160.7 498.3 192.8 499.3C225 500.3 257 498.7 289.2 496.8C321.3 495 353.7 493 385.8 494.8C418 496.7 450 502.3 482.2 503.2C514.3 504 546.7 500 578.8 495.8C611 491.7 643 487.3 659 485.2L675 483L675 601L659 601C643 601 611 601 578.8 601C546.7 601 514.3 601 482.2 601C450 601 418 601 385.8 601C353.7 601 321.3 601 289.2 601C257 601 225 601 192.8 601C160.7 601 128.3 601 96.2 601C64 601 32 601 16 601L0 601Z" fill="#728ac5"></path><path d="M0 561L16 562C32 563 64 565 96.2 566C128.3 567 160.7 567 192.8 566.5C225 566 257 565 289.2 560C321.3 555 353.7 546 385.8 542.2C418 538.3 450 539.7 482.2 539.2C514.3 538.7 546.7 536.3 578.8 539.5C611 542.7 643 551.3 659 555.7L675 560L675 601L659 601C643 601 611 601 578.8 601C546.7 601 514.3 601 482.2 601C450 601 418 601 385.8 601C353.7 601 321.3 601 289.2 601C257 601 225 601 192.8 601C160.7 601 128.3 601 96.2 601C64 601 32 601 16 601L0 601Z" fill="#6681c2"></path></svg>