<svg id="visual" viewBox="0 0 675 900" width="675" height="900" xmlns="http://www.w3.org/2000/svg" xmlns:xlink="http://www.w3.org/1999/xlink" version="1.1"><rect x="0" y="0" width="675" height="900" fill="#171717"></rect><g fill="#6681C2"><circle r="24" cx="567" cy="136"></circle><circle r="8" cx="367" cy="849"></circle><circle r="11" cx="390" cy="392"></circle><circle r="22" cx="437" cy="242"></circle><circle r="20" cx="349" cy="601"></circle><circle r="8" cx="274" cy="205"></circle><circle r="15" cx="628" cy="359"></circle><circle r="9" cx="480" cy="627"></circle><circle r="8" cx="199" cy="578"></circle><circle r="8" cx="500" cy="787"></circle><circle r="17" cx="499" cy="450"></circle><circle r="12" cx="336" cy="451"></circle><circle r="18" cx="231" cy="310"></circle><circle r="16" cx="81" cy="786"></circle><circle r="8" cx="298" cy="798"></circle><circle r="11" cx="196" cy="870"></circle><circle r="20" cx="118" cy="586"></circle><circle r="8" cx="59" cy="641"></circle><circle r="10" cx="222" cy="706"></circle><circle r="15" cx="135" cy="873"></circle></g></svg>