<svg id="visual" viewBox="0 0 900 450" width="900" height="450" xmlns="http://www.w3.org/2000/svg" xmlns:xlink="http://www.w3.org/1999/xlink" version="1.1"><path d="M0 19L60 19L120 24L180 42L240 28L300 51L360 42L420 33L480 24L540 42L600 19L660 19L720 28L780 42L840 51L900 37L900 0L840 0L780 0L720 0L660 0L600 0L540 0L480 0L420 0L360 0L300 0L240 0L180 0L120 0L60 0L0 0Z" fill="#6681c2"></path><path d="M0 91L60 123L120 91L180 208L240 127L300 163L360 154L420 109L480 100L540 159L600 82L660 73L720 136L780 181L840 186L900 190L900 35L840 49L780 40L720 26L660 17L600 17L540 40L480 22L420 31L360 40L300 49L240 26L180 40L120 22L60 17L0 17Z" fill="#5a70a7"></path><path d="M0 168L60 159L120 163L180 244L240 204L300 226L360 222L420 204L480 195L540 213L600 172L660 145L720 222L780 262L840 226L900 226L900 188L840 184L780 179L720 134L660 71L600 80L540 157L480 98L420 107L360 152L300 161L240 125L180 206L120 89L60 121L0 89Z" fill="#4f608c"></path><path d="M0 222L60 190L120 190L180 276L240 271L300 280L360 289L420 253L480 222L540 244L600 240L660 204L720 249L780 312L840 276L900 289L900 224L840 224L780 260L720 220L660 143L600 170L540 211L480 193L420 202L360 220L300 224L240 202L180 242L120 161L60 157L0 166Z" fill="#445172"></path><path d="M0 258L60 204L120 222L180 307L240 316L300 307L360 312L420 294L480 253L540 271L600 285L660 226L720 285L780 330L840 312L900 307L900 287L840 274L780 310L720 247L660 202L600 238L540 242L480 220L420 251L360 287L300 278L240 269L180 274L120 188L60 188L0 220Z" fill="#38415a"></path><path d="M0 276L60 231L120 253L180 330L240 343L300 343L360 330L420 312L480 285L540 312L600 307L660 244L720 312L780 352L840 325L900 348L900 305L840 310L780 328L720 283L660 224L600 283L540 269L480 251L420 292L360 310L300 305L240 314L180 305L120 220L60 202L0 256Z" fill="#2d3342"></path><path d="M0 316L60 289L120 307L180 388L240 393L300 388L360 384L420 334L480 334L540 330L600 343L660 289L720 375L780 379L840 343L900 375L900 346L840 323L780 350L720 310L660 242L600 305L540 310L480 283L420 310L360 328L300 341L240 341L180 328L120 251L60 229L0 274Z" fill="#22242c"></path><path d="M0 451L60 451L120 451L180 451L240 451L300 451L360 451L420 451L480 451L540 451L600 451L660 451L720 451L780 451L840 451L900 451L900 373L840 341L780 377L720 373L660 287L600 341L540 328L480 332L420 332L360 382L300 386L240 391L180 386L120 305L60 287L0 314Z" fill="#171717"></path></svg>