<svg id="visual" viewBox="0 0 900 600" width="900" height="600" xmlns="http://www.w3.org/2000/svg" xmlns:xlink="http://www.w3.org/1999/xlink" version="1.1"><path d="M0 25L60 25L120 31L180 55L240 37L300 67L360 55L420 43L480 31L540 55L600 25L660 25L720 37L780 55L840 67L900 49L900 0L840 0L780 0L720 0L660 0L600 0L540 0L480 0L420 0L360 0L300 0L240 0L180 0L120 0L60 0L0 0Z" fill="#171717"></path><path d="M0 121L60 163L120 121L180 277L240 169L300 217L360 205L420 145L480 133L540 211L600 109L660 97L720 181L780 241L840 247L900 253L900 47L840 65L780 53L720 35L660 23L600 23L540 53L480 29L420 41L360 53L300 65L240 35L180 53L120 29L60 23L0 23Z" fill="#22242c"></path><path d="M0 223L60 211L120 217L180 325L240 271L300 301L360 295L420 271L480 259L540 283L600 229L660 193L720 295L780 349L840 301L900 301L900 251L840 245L780 239L720 179L660 95L600 107L540 209L480 131L420 143L360 203L300 215L240 167L180 275L120 119L60 161L0 119Z" fill="#2d3342"></path><path d="M0 295L60 253L120 253L180 367L240 361L300 373L360 385L420 337L480 295L540 325L600 319L660 271L720 331L780 415L840 367L900 385L900 299L840 299L780 347L720 293L660 191L600 227L540 281L480 257L420 269L360 293L300 299L240 269L180 323L120 215L60 209L0 221Z" fill="#38415a"></path><path d="M0 343L60 271L120 295L180 409L240 421L300 409L360 415L420 391L480 337L540 361L600 379L660 301L720 379L780 439L840 415L900 409L900 383L840 365L780 413L720 329L660 269L600 317L540 323L480 293L420 335L360 383L300 371L240 359L180 365L120 251L60 251L0 293Z" fill="#445172"></path><path d="M0 367L60 307L120 337L180 439L240 457L300 457L360 439L420 415L480 379L540 415L600 409L660 325L720 415L780 469L840 433L900 463L900 407L840 413L780 437L720 377L660 299L600 377L540 359L480 335L420 389L360 413L300 407L240 419L180 407L120 293L60 269L0 341Z" fill="#4f608c"></path><path d="M0 421L60 385L120 409L180 517L240 523L300 517L360 511L420 445L480 445L540 439L600 457L660 385L720 499L780 505L840 457L900 499L900 461L840 431L780 467L720 413L660 323L600 407L540 413L480 377L420 413L360 437L300 455L240 455L180 437L120 335L60 305L0 365Z" fill="#5a70a7"></path><path d="M0 601L60 601L120 601L180 601L240 601L300 601L360 601L420 601L480 601L540 601L600 601L660 601L720 601L780 601L840 601L900 601L900 497L840 455L780 503L720 497L660 383L600 455L540 437L480 443L420 443L360 509L300 515L240 521L180 515L120 407L60 383L0 419Z" fill="#6681c2"></path></svg>