<svg id="visual" viewBox="0 0 900 450" width="900" height="450" xmlns="http://www.w3.org/2000/svg" xmlns:xlink="http://www.w3.org/1999/xlink" version="1.1"><path d="M0 325L21.5 315.2C43 305.3 86 285.7 128.8 278.3C171.7 271 214.3 276 257.2 283.7C300 291.3 343 301.7 385.8 301.2C428.7 300.7 471.3 289.3 514.2 286C557 282.7 600 287.3 642.8 287.2C685.7 287 728.3 282 771.2 281.3C814 280.7 857 284.3 878.5 286.2L900 288L900 451L878.5 451C857 451 814 451 771.2 451C728.3 451 685.7 451 642.8 451C600 451 557 451 514.2 451C471.3 451 428.7 451 385.8 451C343 451 300 451 257.2 451C214.3 451 171.7 451 128.8 451C86 451 43 451 21.5 451L0 451Z" fill="#96a6cc"></path><path d="M0 312L21.5 319.8C43 327.7 86 343.3 128.8 341C171.7 338.7 214.3 318.3 257.2 317C300 315.7 343 333.3 385.8 333.8C428.7 334.3 471.3 317.7 514.2 315.7C557 313.7 600 326.3 642.8 333.7C685.7 341 728.3 343 771.2 344.2C814 345.3 857 345.7 878.5 345.8L900 346L900 451L878.5 451C857 451 814 451 771.2 451C728.3 451 685.7 451 642.8 451C600 451 557 451 514.2 451C471.3 451 428.7 451 385.8 451C343 451 300 451 257.2 451C214.3 451 171.7 451 128.8 451C86 451 43 451 21.5 451L0 451Z" fill="#8a9cca"></path><path d="M0 339L21.5 342.2C43 345.3 86 351.7 128.8 357.8C171.7 364 214.3 370 257.2 372.3C300 374.7 343 373.3 385.8 373.7C428.7 374 471.3 376 514.2 370.3C557 364.7 600 351.3 642.8 349.7C685.7 348 728.3 358 771.2 358.2C814 358.3 857 348.7 878.5 343.8L900 339L900 451L878.5 451C857 451 814 451 771.2 451C728.3 451 685.7 451 642.8 451C600 451 557 451 514.2 451C471.3 451 428.7 451 385.8 451C343 451 300 451 257.2 451C214.3 451 171.7 451 128.8 451C86 451 43 451 21.5 451L0 451Z" fill="#7e93c7"></path><path d="M0 385L21.5 382.2C43 379.3 86 373.7 128.8 372.2C171.7 370.7 214.3 373.3 257.2 374C300 374.7 343 373.3 385.8 372C428.7 370.7 471.3 369.3 514.2 370.8C557 372.3 600 376.7 642.8 377.3C685.7 378 728.3 375 771.2 371.8C814 368.7 857 365.3 878.5 363.7L900 362L900 451L878.5 451C857 451 814 451 771.2 451C728.3 451 685.7 451 642.8 451C600 451 557 451 514.2 451C471.3 451 428.7 451 385.8 451C343 451 300 451 257.2 451C214.3 451 171.7 451 128.8 451C86 451 43 451 21.5 451L0 451Z" fill="#728ac5"></path><path d="M0 420L21.5 420.8C43 421.7 86 423.3 128.8 424.2C171.7 425 214.3 425 257.2 424.7C300 424.3 343 423.7 385.8 420C428.7 416.3 471.3 409.7 514.2 406.8C557 404 600 405 642.8 404.5C685.7 404 728.3 402 771.2 404.3C814 406.7 857 413.3 878.5 416.7L900 420L900 451L878.5 451C857 451 814 451 771.2 451C728.3 451 685.7 451 642.8 451C600 451 557 451 514.2 451C471.3 451 428.7 451 385.8 451C343 451 300 451 257.2 451C214.3 451 171.7 451 128.8 451C86 451 43 451 21.5 451L0 451Z" fill="#6681c2"></path></svg>